#!OML:ASF F:\VICON\USERDATA\INSTALL\rory3\rory3.ASF
:FULLY-SPECIFIED
:DEGREES
565
root -1.82776 16.7274 22.401 -154.3 -27.6687 -181.496
lowerback -9.4386 -4.37604 1.01982
upperback -8.47812 -6.69897 3.14115
thorax -3.30824 -3.69695 2.27455
lowerneck -3.93358 -1.7641 -3.06973
upperneck 28.125 -6.11683 4.34053
head 9.73719 -3.71952 1.29934
rclavicle 1.13307e-014 4.25399e-014
rhumerus 77.8739 -22.3991 -27.7923
rradius 31.6369
rwrist -16.2918
rhand 22.1348 5.29691
rfingers 7.12502
rthumb 46.5184 -17.5786
lclavicle 1.13307e-014 4.25399e-014
lhumerus 78.5283 19.9335 18.1199
lradius 37.8533
lwrist -7.76145
lhand 5.25245 23.6734
lfingers 7.12502
lthumb 30.6107 51.1483
rfemur 111.343 -185.003 -183.7
rtibia 42.811
rfoot -62.434 1.17678
rtoes 61.9424
lfemur -27.5849 -2.89385 -31.1092
ltibia 30.7177
lfoot -36.4727 22.5863
ltoes -10.5873
566
root -1.83527 16.7235 22.4448 -154.49 -27.1847 -181.439
lowerback -9.62858 -4.44166 0.996201
upperback -8.45294 -6.7961 3.03677
thorax -3.18509 -3.75003 2.15248
lowerneck -4.07614 -1.5363 -3.10244
upperneck 28.3284 -5.83868 4.39003
head 9.82746 -3.59852 1.34336
rclavicle 1.62506e-014 3.18055e-015
rhumerus 80.9809 -22.1658 -31.8432
rradius 30.0217
rwrist -15.0733
rhand 23.5992 4.80965
rfingers 7.12502
rthumb 47.872 -17.4627
lclavicle 1.62506e-014 3.18055e-015
lhumerus 79.8257 19.7909 19.7272
lradius 37.1897
lwrist -6.18679
lhand 5.12446 24.1229
lfingers 7.12502
lthumb 30.4887 51.6205
rfemur 111.505 -185.352 -183.764
rtibia 42.7359
rfoot -62.1604 1.96791
rtoes 62.2525
lfemur -27.656 -2.81449 -31.2902
ltibia 30.9446
lfoot -36.2714 22.2973
ltoes -9.46953
567
root -1.83998 16.7213 22.4839 -154.696 -26.8154 -181.284
lowerback -9.86546 -4.47438 1.05019
upperback -8.53078 -6.87175 2.90018
thorax -3.15956 -3.80406 1.96031
lowerneck -4.15074 -1.28682 -2.77538
upperneck 28.827 -5.62087 4.24844
head 10.0023 -3.51116 1.24899
rclavicle 4.3186e-014 1.35174e-014
rhumerus 83.8788 -21.6673 -36.0978
rradius 28.3223
rwrist -14.354
rhand 24.708 4.23465
rfingers 7.12502
rthumb 48.8929 -17.5505
lclavicle 4.3186e-014 1.35174e-014
lhumerus 81.162 19.418 21.4216
lradius 36.6079
lwrist -3.25482
lhand 5.30302 24.8285
lfingers 7.12502
lthumb 30.659 52.2944
rfemur 111.645 -185.683 -183.664
rtibia 42.7105
rfoot -62.0948 2.29186
rtoes 62.5189
lfemur -27.7357 -2.77299 -31.3297
ltibia 31.1241
lfoot -36.273 22.51
ltoes -9.13274
568
root -1.84717 16.7217 22.5229 -154.92 -26.4419 -181.347
lowerback -10.0371 -4.52696 0.89346
upperback -8.53865 -6.94421 2.70556
thorax -3.07934 -3.84166 1.82377
lowerneck -4.02054 -1.09101 -2.30629
upperneck 29.0753 -5.43556 4.02334
head 10.0435 -3.42835 1.10403
rclavicle 4.15708e-014 -1.55052e-014
rhumerus 86.737 -21.0647 -40.7807
rradius 26.6617
rwrist -13.7455
rhand 25.3707 3.87716
rfingers 7.12502
rthumb 49.5013 -17.6036
lclavicle 4.15708e-014 -1.55052e-014
lhumerus 82.6529 19.0994 23.3919
lradius 36.0364
lwrist 0.319774
lhand 6.10736 25.8269
lfingers 7.12502
lthumb 31.4256 53.1464
rfemur 111.904 -185.972 -183.738
rtibia 42.761
rfoot -62.0312 2.27501
rtoes 62.5471
lfemur -27.6084 -2.70545 -31.5884
ltibia 31.2154
lfoot -36.4126 22.6215
ltoes -8.47392
569
root -1.85302 16.726 22.5622 -155.12 -25.9068 -181.337
lowerback -10.1845 -4.55191 0.756272
upperback -8.55739 -6.98328 2.60356
thorax -3.01554 -3.86292 1.77725
lowerneck -3.70801 -0.906176 -2.32275
upperneck 28.9797 -5.20196 4.06826
head 9.93977 -3.33648 1.15081
rclavicle -2.54196e-014 -3.10104e-014
rhumerus 89.9099 -20.182 -46.0574
rradius 25.0264
rwrist -13.3165
rhand 25.8705 3.58649
rfingers 7.12502
rthumb 49.9592 -17.6576
lclavicle -2.54196e-014 -3.10104e-014
lhumerus 84.2366 18.8065 26.0353
lradius 35.2133
lwrist 3.81426
lhand 6.43172 26.7486
lfingers 7.12502
lthumb 31.7346 54.0074
rfemur 112.005 -186.419 -183.822
rtibia 42.8092
rfoot -61.9228 2.15041
rtoes 62.5872
lfemur -27.5791 -2.55017 -31.8294
ltibia 31.295
lfoot -36.5294 22.9223
ltoes -8.41518
570
root -1.8546 16.7211 22.5973 -155.103 -25.2536 -181.51
lowerback -10.4305 -4.56234 0.411629
upperback -8.71204 -7.0135 2.43308
thorax -3.02841 -3.88298 1.77482
lowerneck -3.19752 -0.641523 -2.22199
upperneck 28.996 -4.91063 4.05077
head 9.83345 -3.23167 1.16057
rclavicle 2.12203e-014 -1.11319e-014
rhumerus 92.8304 -18.9669 -51.4366
rradius 23.4237
rwrist -13.6202
rhand 26.1632 2.98087
rfingers 7.12502
rthumb 50.2269 -18.1219
lclavicle 2.12203e-014 -1.11319e-014
lhumerus 85.8413 18.2517 29.0622
lradius 34.3655
lwrist 7.87117
lhand 6.31107 27.4007
lfingers 7.12502
lthumb 31.6197 54.6822
rfemur 111.864 -186.806 -184.15
rtibia 42.8594
rfoot -61.7326 1.59796
rtoes 62.6022
lfemur -27.6842 -2.28837 -32.2736
ltibia 31.3462
lfoot -36.5974 22.9801
ltoes -8.08373
571
root -1.8577 16.7186 22.6283 -155.236 -24.8264 -181.5
lowerback -10.6866 -4.58637 0.306252
upperback -8.82112 -7.07266 2.31634
thorax -3.00757 -3.92477 1.69035
lowerneck -2.60378 -0.396493 -2.08516
upperneck 28.9583 -4.66316 4.07576
head 9.69482 -3.14121 1.17514
rclavicle -5.50634e-014 -6.75868e-015
rhumerus 95.541 -17.4415 -57.0503
rradius 21.8881
rwrist -14.5036
rhand 25.8777 2.46504
rfingers 7.12502
rthumb 49.9658 -18.7757
lclavicle -5.50634e-014 -6.75868e-015
lhumerus 87.1378 17.7079 31.6776
lradius 33.7141
lwrist 12.8168
lhand 7.18913 27.8994
lfingers 7.12502
lthumb 32.4557 55.0129
rfemur 111.902 -187.138 -184.225
rtibia 42.8944
rfoot -61.5138 1.44705
rtoes 62.7059
lfemur -27.6763 -1.94603 -32.4789
ltibia 31.3702
lfoot -36.4709 22.9806
ltoes -8.48793
572
root -1.85871 16.7155 22.6576 -155.338 -24.4154 -181.531
lowerback -11.0139 -4.60884 0.156283
upperback -8.87016 -7.11897 2.19813
thorax -2.88026 -3.95552 1.61687
lowerneck -2.03021 -0.239125 -1.95111
upperneck 28.8059 -4.48944 4.04254
head 9.52112 -3.08108 1.16363
rclavicle -1.04325e-013 -4.21423e-014
rhumerus 97.9191 -15.6721 -62.8301
rradius 20.6936
rwrist -15.9169
rhand 24.9444 2.10316
rfingers 7.12502
rthumb 49.1101 -19.5746
lclavicle -1.04325e-013 -4.21423e-014
lhumerus 88.3861 17.2856 34.2056
lradius 33.0183
lwrist 18.1131
lhand 8.78947 28.3913
lfingers 7.12502
lthumb 33.9773 55.1801
rfemur 111.928 -187.452 -184.338
rtibia 42.9098
rfoot -61.3984 2.1502
rtoes 62.8884
lfemur -27.6684 -1.67808 -32.6785
ltibia 31.3913
lfoot -36.6036 22.7898
ltoes -8.18689
573
root -1.85914 16.7042 22.6844 -155.187 -23.7717 -182.035
lowerback -11.3457 -4.64593 -0.410243
upperback -8.98713 -7.1633 1.9092
thorax -2.79866 -3.97587 1.5996
lowerneck -1.73049 -0.0636502 -1.78917
upperneck 28.956 -4.33428 3.98159
head 9.50983 -3.0338 1.12749
rclavicle 4.06328e-014 -1.49089e-014
rhumerus 99.7623 -13.7822 -68.3748
rradius 19.8588
rwrist -17.8243
rhand 23.5982 2.2344
rfingers 7.12502
rthumb 47.8711 -20.0383
lclavicle 4.06328e-014 -1.49089e-014
lhumerus 89.8543 16.7212 37.3162
lradius 32.1788
lwrist 22.9154
lhand 10.7007 28.655
lfingers 7.12502
lthumb 35.7907 55.0226
rfemur 111.815 -187.685 -184.988
rtibia 42.9207
rfoot -61.4045 2.728
rtoes 62.9173
lfemur -27.7497 -1.40117 -33.417
ltibia 31.4542
lfoot -36.7022 22.8489
ltoes -8.52995
574
root -1.86594 16.699 22.7085 -155.276 -23.3426 -182.065
lowerback -11.6941 -4.68062 -0.512691
upperback -9.10442 -7.2414 1.82814
thorax -2.73407 -4.03038 1.53818
lowerneck -1.36277 0.200161 -1.75208
upperneck 29.1133 -4.04544 3.92354
head 9.4856 -2.94131 1.12573
rclavicle 8.75382e-014 7.15625e-015
rhumerus 101.224 -11.8333 -73.2575
rradius 19.0875
rwrist -20.677
rhand 22.554 2.55594
rfingers 7.12502
rthumb 46.9064 -20.1514
lclavicle 8.75382e-014 7.15625e-015
lhumerus 91.3253 15.958 41.2895
lradius 31.2973
lwrist 26.6575
lhand 12.9262 28.6736
lfingers 7.12502
lthumb 37.8962 54.501
rfemur 111.795 -188.023 -185.108
rtibia 42.9053
rfoot -61.5873 3.42025
rtoes 62.9426
lfemur -27.7813 -1.13674 -33.6461
ltibia 31.5352
lfoot -36.6449 23.0638
ltoes -9.11738
575
root -1.87003 16.698 22.7362 -155.441 -22.8947 -181.836
lowerback -12.0494 -4.66567 -0.470956
upperback -9.22999 -7.26797 1.87136
thorax -2.67662 -4.06379 1.53041
lowerneck -0.879752 0.462642 -1.85258
upperneck 29.1489 -3.75637 3.97177
head 9.39949 -2.85218 1.18676
rclavicle -2.63001e-014 -9.54166e-015
rhumerus 102.065 -9.86387 -77.6898
rradius 19.005
rwrist -24.402
rhand 21.836 2.31036
rfingers 7.12502
rthumb 46.2415 -20.683
lclavicle -2.63001e-014 -9.54166e-015
lhumerus 92.5994 15.0356 45.4321
lradius 30.4202
lwrist 29.6379
lhand 15.3199 28.2641
lfingers 7.12502
lthumb 40.1526 53.4439
rfemur 111.7 -188.496 -184.995
rtibia 42.8996
rfoot -61.8004 4.29497
rtoes 63.1169
lfemur -27.8635 -0.861094 -33.6144
ltibia 31.5759
lfoot -36.5084 23.2172
ltoes -9.43035
576
root -1.87231 16.6974 22.7643 -155.538 -22.4045 -181.76
lowerback -12.5423 -4.59795 -0.522585
upperback -9.18265 -7.19052 1.72465
thorax -2.37856 -4.03626 1.36083
lowerneck -0.783462 0.592797 -1.72183
upperneck 29.2879 -3.67755 4.08057
head 9.4299 -2.81356 1.206
rclavicle 5.07817e-014 1.55052e-014
rhumerus 102.306 -8.41617 -81.6122
rradius 19.8788
rwrist -29.2822
rhand 21.1768 2.25061
rfingers 7.12502
rthumb 45.6297 -20.9965
lclavicle 5.07817e-014 1.55052e-014
lhumerus 93.7584 14.1072 48.7963
lradius 29.892
lwrist 32.5672
lhand 17.2008 27.1491
lfingers 7.12502
lthumb 41.919 51.7662
rfemur 111.572 -188.921 -185.019
rtibia 42.8885
rfoot -61.951 4.91713
rtoes 63.1785
lfemur -27.9558 -0.632532 -33.7158
ltibia 31.6335
lfoot -36.6415 23.3774
ltoes -9.68352
577
root -1.87613 16.6967 22.7872 -155.705 -21.9416 -181.825
lowerback -12.9136 -4.56743 -0.657468
upperback -9.09003 -7.14085 1.49143
thorax -2.0989 -4.01521 1.15477
lowerneck -0.880479 0.669738 -1.5041
upperneck 29.5901 -3.7068 4.16819
head 9.55941 -2.81925 1.18966
rclavicle -6.72475e-014 -3.2551e-014
rhumerus 101.748 -7.74325 -83.596
rradius 21.4239
rwrist -36.0474
rhand 20.4816 2.68796
rfingers 7.12502
rthumb 44.9835 -20.8181
lclavicle -6.72475e-014 -3.2551e-014
lhumerus 94.4157 13.2624 51.3428
lradius 29.8939
lwrist 35.603
lhand 19.0835 25.7945
lfingers 7.12502
lthumb 43.6804 49.7955
rfemur 111.565 -189.295 -185.155
rtibia 42.8944
rfoot -62.1356 4.86945
rtoes 63.0201
lfemur -27.8379 -0.511456 -33.923
ltibia 31.675
lfoot -37.0474 23.5778
ltoes -10.1385
578
root -1.88378 16.6921 22.8089 -155.858 -21.4858 -181.883
lowerback -13.1793 -4.57275 -0.772705
upperback -9.18935 -7.17326 1.36098
thorax -2.0679 -4.04611 1.06073
lowerneck -0.52583 0.84141 -1.32342
upperneck 29.8156 -3.58501 4.07133
head 9.5685 -2.80077 1.13183
rclavicle 9.57071e-014 1.32192e-014
rhumerus 100.342 -7.3367 -84.0235
rradius 23.707
rwrist -44.3433
rhand 20.0191 2.23306
rfingers 7.12502
rthumb 44.5528 -21.4405
lclavicle 9.57071e-014 1.32192e-014
lhumerus 94.4388 12.4569 53.7708
lradius 30.3373
lwrist 38.3497
lhand 21.3458 25.1128
lfingers 7.12502
lthumb 45.7867 48.2956
rfemur 111.519 -189.629 -185.307
rtibia 42.9262
rfoot -62.4259 5.01548
rtoes 62.8783
lfemur -27.6991 -0.29402 -34.1742
ltibia 31.6539
lfoot -37.2583 23.2797
ltoes -9.00819
